_________________________  Visit us at _________________________
  
http://p2pdl.com  ____________________________  http://p2pdl.com


A Little Pond 2009 BRRip 720p x264 Korean ESubs - PRiSTiNE [P2PDL]

Genre: War
Plot: During the Korean War, small mountain village is 
evacuated as retreating American GIs approach.
Director: Sang-woo Lee
Stars: Seung Geun Moon, Roe-ha Kim, Hye-jin Jeon
Rated: PG-13

Info: 
http://www.imdb.com/title/tt1517145/


General
Complete name                  : A Little Pond 2009 BRRip 720p x264 Korean ESubs - PRiSTiNE.mp4
Format                         : MPEG-4
Format profile                 : Base Media
File size                      : 550 MiB
Duration                       : 1h 25mn
Overall bit rate mode          : Variable
Overall bit rate               : 894 Kbps

Video
Format                         : AVC
Format/Info                    : Advanced Video Codec
Format profile                 : High 10@L4.1
Bit rate                       : 813 Kbps
Width                          : 1 280 pixels
Height                         : 688 pixels
Display aspect ratio           : 1.85:1
Frame rate                     : 23.976 fps
Bit depth                      : 10 bits
Scan type                      : Progressive
Bits/(Pixel*Frame)             : 0.039
Stream size                    : 499 MiB (91%)
Writing library                : x264 core 130 r2273 b3065e6

Audio
Format                         : AAC
Format/Info                    : Advanced Audio Codec
Bit rate mode                  : Variable
Bit rate                       : 79.8 Kbps
Channel(s)                     : 2 channels
Channel positions              : Front: L R
Sampling rate                  : 48.0 KHz / 24.0 KHz
Stream size                    : 49.1 MiB (9%)

Subtitle                       : Yes (English)
Source                         : BluRay.720p.DTS.x264-CHD (Thanks)

Screens:
 
http://www.ultraimg.com/images/qpL0P.jpg 
http://www.ultraimg.com/images/wtXSh.jpg 
http://www.ultraimg.com/images/4v82j.jpg 
http://www.ultraimg.com/images/AJ3bG.jpg

----------------------------------------------------------------------------------------------------


Encoded using revolutionary 10bit encoding, which enables us to provide you more crispier 
and sharper images at small sizes, just make sure you follow our instructions without a fault.
Recommend to you to use latest version of VLC player. Install K-Lite Codec Pack or shark007 codecs
in case of any kind of problem in playback (For non-VLC Media Player users). Alternatively, install
Core AVC codecs, the fastest decoder that there is coupled with Community Center Codec Pack and play
on Windows Media Player Classic. Check sample to be sure.
Enjoy!

Encoder Notes:Looking For Early Access To Anything You Can Provide DVDScr, R5, DVDR, BluRay, Direct
Audio, Music Releases and Seedboxes. We require dedicated servers, so as to do more 
and fast releases of movies.
If You Got anything to offer please contact us at "prg@hush.com".

Face book Fan Page:   
http://www.fb.me/p2pdl